<svg width="40" height="40" viewBox="0 0 40 40" fill="none" xmlns="http://www.w3.org/2000/svg">
<path d="M30.4 10H9.6C8.17 10 7.013 11.125 7.013 12.5L7 27.5C7 28.875 8.17 30 9.6 30H30.4C31.83 30 33 28.875 33 27.5V12.5C33 11.125 31.83 10 30.4 10ZM29.88 15.3125L20.689 20.8375C20.273 21.0875 19.727 21.0875 19.311 20.8375L10.12 15.3125C9.795 15.1125 9.6 14.775 9.6 14.4125C9.6 13.575 10.549 13.075 11.29 13.5125L20 18.75L28.71 13.5125C29.451 13.075 30.4 13.575 30.4 14.4125C30.4 14.775 30.205 15.1125 29.88 15.3125Z" fill="white"/>
</svg>
