<svg width="26" height="26" viewBox="0 0 26 26" fill="none" xmlns="http://www.w3.org/2000/svg">
<path d="M23.4525 17.7302L19.7762 17.3105C18.8933 17.2092 18.0249 17.5131 17.4026 18.1355L14.7394 20.7986C10.6434 18.7144 7.28553 15.371 5.20133 11.2605L7.87894 8.58288C8.50131 7.96051 8.80525 7.09209 8.70394 6.2092L8.2842 2.56184C8.11052 1.1 6.88027 0 5.40396 0H2.90003C1.26452 0 -0.0959949 1.36052 0.0053196 2.99605C0.772419 15.3565 10.6579 25.2276 23.0038 25.9947C24.6393 26.096 25.9999 24.7355 25.9999 23.1V20.596C26.0143 19.1342 24.9143 17.9039 23.4525 17.7302Z" fill="white"/>
</svg>
