<svg width="17" height="10" viewBox="0 0 17 10" fill="none" xmlns="http://www.w3.org/2000/svg">
<path fill-rule="evenodd" clip-rule="evenodd" d="M0.468459 0.668637C0.768503 0.368684 1.1754 0.200179 1.59966 0.200179C2.02392 0.200179 2.43081 0.368684 2.73086 0.668637L7.99966 5.93744L13.2685 0.668637C13.4161 0.515821 13.5926 0.393929 13.7878 0.310075C13.983 0.22622 14.193 0.182082 14.4054 0.180236C14.6179 0.17839 14.8286 0.218872 15.0252 0.299322C15.2218 0.379771 15.4005 0.498576 15.5507 0.648805C15.7009 0.799033 15.8197 0.977676 15.9002 1.17431C15.9806 1.37094 16.0211 1.58163 16.0193 1.79408C16.0174 2.00653 15.9733 2.21648 15.8894 2.41168C15.8056 2.60689 15.6837 2.78344 15.5309 2.93104L9.13086 9.33104C8.83081 9.63099 8.42392 9.79949 7.99966 9.79949C7.5754 9.79949 7.1685 9.63099 6.86846 9.33104L0.468459 2.93104C0.168505 2.63099 0 2.2241 0 1.79984C0 1.37557 0.168505 0.968682 0.468459 0.668637Z" fill="#FF5E59"/>
</svg>
